<svg xmlns="http://www.w3.org/2000/svg" xmlns:xlink="http://www.w3.org/1999/xlink" width="91.927" height="91.927" viewBox="0 0 91.927 91.927">
  <defs>
    <radialGradient id="radial-gradient" cx="0.076" cy="0.019" r="1.465" gradientTransform="translate(0.001)" gradientUnits="objectBoundingBox">
      <stop offset="0" stop-color="#f6f6f7"/>
      <stop offset="0.477" stop-color="#f9f9fa"/>
      <stop offset="0.715" stop-color="#fff"/>
    </radialGradient>
  </defs>
  <g id="Grupo_62538" data-name="Grupo 62538" transform="translate(-217 -741.333)">
    <g id="Grupo_42274" data-name="Grupo 42274" transform="translate(142 768.333)">
      <g id="Grupo_18423" data-name="Grupo 18423" transform="translate(75 -27)">
        <g id="Grupo_18421" data-name="Grupo 18421">
          <g id="Grupo_18420" data-name="Grupo 18420">
            <g id="Grupo_18419" data-name="Grupo 18419">
              <path id="Trazado_40936" data-name="Trazado 40936" d="M286.55,2191.684a45.964,45.964,0,1,1-45.963-45.962A45.963,45.963,0,0,1,286.55,2191.684Z" transform="translate(-194.623 -2145.721)" fill="#fff"/>
            </g>
          </g>
        </g>
        <path id="Trazado_40937" data-name="Trazado 40937" d="M286.23,2191.334a45.963,45.963,0,1,0-45.963,45.965A45.782,45.782,0,0,0,286.23,2191.334Z" transform="translate(-194.303 -2145.372)" fill="url(#radial-gradient)"/>
        <path id="Trazado_40938" data-name="Trazado 40938" d="M272.56,2188.562a35.084,35.084,0,1,0-35.084,35.084A34.953,34.953,0,0,0,272.56,2188.562Z" transform="translate(-191.373 -2142.446)" fill="none" stroke="#12263f" stroke-miterlimit="10" stroke-width="4"/>
        <g id="Grupo_18422" data-name="Grupo 18422" transform="translate(8.143 25.805)">
          <path id="Trazado_40939" data-name="Trazado 40939" d="M279.682,2164.488a45.969,45.969,0,0,1-79.137,45.773,45.823,45.823,0,0,0,79.137-45.773Z" transform="translate(-200.545 -2164.488)" fill="#eceef0"/>
        </g>
      </g>
    </g>
    <g id="jmGXMg.tif" transform="translate(238.568 763.665)">
      <g id="Grupo_56633" data-name="Grupo 56633">
        <path id="Trazado_122984" data-name="Trazado 122984" d="M-533.023,254.155l2.537,2.376c3.452-1.791,6.591-1.221,8.512,1.527a6.037,6.037,0,0,1-.93,7.929,6.052,6.052,0,0,1-7.944.149,6.109,6.109,0,0,1-.82-8.487l-2.532-2.378c-4.335,2.929-8.622,2.929-12.96.015l-2.655,2.483a21.571,21.571,0,0,1,.942,2.782A5.943,5.943,0,0,1-551.9,266.8a6.066,6.066,0,0,1-6.838-.69,6.032,6.032,0,0,1-1.673-6.96,6.068,6.068,0,0,1,6.094-3.694,6.071,6.071,0,0,1,2.914,1.035c.127.086.414.13.5.054.866-.771,1.7-1.571,2.561-2.373a10.634,10.634,0,0,1-2.322-10.586c-1.1-.36-2.18-.724-3.271-1.045-.108-.032-.33.164-.438.3a5.974,5.974,0,0,1-4.993,2.486,6.054,6.054,0,0,1-5.811-4.717,6.026,6.026,0,0,1,3.088-6.682,5.748,5.748,0,0,1,6.535.592,5.8,5.8,0,0,1,2.175,6.153c-.015.064-.024.13-.034.2a.821.821,0,0,0,.01.11l3.386,1.106a10.675,10.675,0,0,1,8.5-5.625V233.6A6.105,6.105,0,0,1-546.7,226.8a6.021,6.021,0,0,1,6.18-5.294,6.044,6.044,0,0,1,5.85,5.383,6.108,6.108,0,0,1-5.189,6.7v2.872a10.9,10.9,0,0,1,5,1.762,10.729,10.729,0,0,1,3.543,4l3.347-1.084c-.069-.629-.179-1.221-.186-1.815a6.062,6.062,0,0,1,5.461-6.085,6.082,6.082,0,0,1,6.54,4.976,6.047,6.047,0,0,1-3.565,6.625,6,6,0,0,1-7.188-1.886.545.545,0,0,0-.741-.23c-1,.35-2,.665-3.024,1A10.629,10.629,0,0,1-533.023,254.155Zm1.223-7.232a8.924,8.924,0,0,0-8.981-8.862,8.927,8.927,0,0,0-8.8,9,8.93,8.93,0,0,0,9.006,8.786A8.935,8.935,0,0,0-531.8,246.923Zm-8.869-23.8a4.465,4.465,0,0,0-4.462,4.448,4.478,4.478,0,0,0,4.421,4.443,4.485,4.485,0,0,0,4.467-4.453A4.476,4.476,0,0,0-540.669,223.12Zm14.114,16.138a4.479,4.479,0,0,0,4.411,4.467,4.485,4.485,0,0,0,4.477-4.4,4.476,4.476,0,0,0-4.389-4.487A4.467,4.467,0,0,0-526.554,239.258Zm-28.27.037a4.472,4.472,0,0,0-4.413-4.463,4.48,4.48,0,0,0-4.475,4.4,4.483,4.483,0,0,0,4.392,4.487A4.47,4.47,0,0,0-554.824,239.294Zm.005,17.755a4.486,4.486,0,0,0-4.45,4.379,4.477,4.477,0,0,0,4.416,4.511,4.489,4.489,0,0,0,4.475-4.4A4.475,4.475,0,0,0-554.819,257.049Zm27.854,8.891a4.472,4.472,0,0,0,4.45-4.475,4.48,4.48,0,0,0-4.46-4.419A4.482,4.482,0,0,0-531.4,261.5,4.481,4.481,0,0,0-526.965,265.94Z" transform="translate(565.333 -221.51)" fill="#12263f"/>
        <path id="Trazado_122985" data-name="Trazado 122985" d="M-547.7,230.382l1.111,1.138-6.772,6.775-3.917-3.934,1.091-1.008,2.733,2.791Z" transform="translate(576.985 -208.675)" fill="#12263f"/>
        <path id="Trazado_122986" data-name="Trazado 122986" d="M-550.771,225.664a2.812,2.812,0,0,1-2.823,2.809,2.811,2.811,0,0,1-2.819-2.809,2.807,2.807,0,0,1,2.845-2.833A2.81,2.81,0,0,1-550.771,225.664Zm-2.848,1.2a1.254,1.254,0,0,0,1.238-1.2,1.252,1.252,0,0,0-1.214-1.226,1.251,1.251,0,0,0-1.211,1.174A1.256,1.256,0,0,0-553.619,226.865Z" transform="translate(578.238 -219.599)" fill="#12263f"/>
        <path id="Trazado_122987" data-name="Trazado 122987" d="M-546,227.619a2.81,2.81,0,0,1,2.823,2.806,2.812,2.812,0,0,1-2.794,2.836,2.813,2.813,0,0,1-2.848-2.782A2.81,2.81,0,0,1-546,227.619Zm1.214,2.814a1.25,1.25,0,0,0-1.231-1.206,1.25,1.25,0,0,0-1.194,1.194,1.251,1.251,0,0,0,1.2,1.233A1.256,1.256,0,0,0-544.788,230.433Z" transform="translate(589.221 -212.672)" fill="#12263f"/>
        <path id="Trazado_122988" data-name="Trazado 122988" d="M-561.148,227.619a2.809,2.809,0,0,1,2.782,2.848,2.809,2.809,0,0,1-2.885,2.794,2.814,2.814,0,0,1-2.755-2.872A2.808,2.808,0,0,1-561.148,227.619Zm-.037,1.607a1.255,1.255,0,0,0-1.214,1.226,1.25,1.25,0,0,0,1.235,1.2,1.25,1.25,0,0,0,1.189-1.2A1.25,1.25,0,0,0-561.185,229.226Z" transform="translate(567.254 -212.672)" fill="#12263f"/>
        <path id="Trazado_122989" data-name="Trazado 122989" d="M-556.549,239.548a2.806,2.806,0,0,1-2.833,2.794,2.811,2.811,0,0,1-2.809-2.872,2.806,2.806,0,0,1,2.86-2.77A2.812,2.812,0,0,1-556.549,239.548Zm-1.61-.034a1.25,1.25,0,0,0-1.231-1.206,1.248,1.248,0,0,0-1.192,1.194,1.251,1.251,0,0,0,1.2,1.233A1.247,1.247,0,0,0-558.159,239.514Z" transform="translate(569.879 -199.536)" fill="#12263f"/>
        <path id="Trazado_122990" data-name="Trazado 122990" d="M-547.992,242.342a2.812,2.812,0,0,1-2.809-2.821,2.809,2.809,0,0,1,2.806-2.821,2.808,2.808,0,0,1,2.836,2.794A2.812,2.812,0,0,1-547.992,242.342Zm1.223-2.8a1.248,1.248,0,0,0-1.2-1.236,1.253,1.253,0,0,0-1.221,1.218,1.25,1.25,0,0,0,1.179,1.209A1.247,1.247,0,0,0-546.769,239.543Z" transform="translate(586.356 -199.536)" fill="#12263f"/>
      </g>
    </g>
  </g>
</svg>
