<svg xmlns="http://www.w3.org/2000/svg" width="210.141" height="193.082" viewBox="0 0 210.141 193.082">
  <g id="Grupo_143352" data-name="Grupo 143352" transform="translate(-699.364 -1812.542) rotate(-19)">
    <path id="Trazado_122310" data-name="Trazado 122310" d="M155.721,2108.846q-3.545,3.565-7.092,7.127c-3.039,3.035-6.479,3.063-9.481.011-3.891-3.956-7.767-7.926-11.566-11.969-.984-1.047-1.515-1.021-2.484.012-3.793,4.049-7.746,7.948-11.514,12.019a20.7,20.7,0,0,1-11.819,6.711c-.742.133-1.47.345-2.206.52-1.8.426-4.105.323-5.247,1.427-1.089,1.055.7,3.046.76,4.747a12.656,12.656,0,0,1-2.685,8.7c-1.174,1.473-2.362,1.738-3.768.286Q71.171,2120.4,53.7,2102.384c-1.188-1.227-1.028-2.3.161-3.465a11.021,11.021,0,0,1,12.4-1.859c1.545.788,2.2.513,3.172-.774,8.768-11.594,17.628-23.121,26.418-34.7a21.507,21.507,0,0,1,15.51-8.79c5.6-.6,11.164-1.449,16.753-2.136a5.379,5.379,0,0,0,3.459-1.737c5.747-6.019,11.571-11.965,17.365-17.938.954-.984,1.995-2.21,3.381-.964,1.52,1.368.342,2.507-.7,3.582q-18.862,19.475-37.706,38.968a8.679,8.679,0,0,0-.164,11.753c2.9,3.016,2.932,3.05,5.906-.1,1.9-2.01,3.923-3.719,6.818-3.879,1.122-.061,1.434-.657,1.458-1.612a6.955,6.955,0,0,0-1.647-4.9c-1.172-1.347-1.083-2.467.158-3.717,3.022-3.042,5.987-6.14,8.962-9.226.666-.693,1.339-1.312,2.4-1.007s1.263,1.165,1.467,2.12c2.449,11.447,9.132,18.786,20.743,21.369,2.368.527,2.759,1.964,1.045,3.784-2.938,3.122-5.977,6.15-8.918,9.271-1.306,1.384-2.39,1.349-3.871.142-2.7-2.2-5.705-2.3-8.287-.112-1.848,1.566-3.116,1.216-4.392-.463-.881-1.16-1.477-1.333-2.637-.09-3.933,4.218-3.995,4.154.086,8.348,2.638,2.713,5.259,5.443,7.9,8.153,2.756,2.83,3.126,2.83,5.817.051q32.021-33.07,64.039-66.139c3.04-3.142,6.1-6.269,9.123-9.422,2.06-2.144,2.094-3.032.115-5.084q-15.5-16.063-31.029-32.095c-1.832-1.893-2.715-1.869-4.6.043-1.418,1.435-2.813,2.891-4.2,4.351-.947.991-1.991,1.347-3.045.268-.984-1.007-.531-1.986.319-2.865,1.636-1.691,3.216-3.442,4.912-5.071a5.886,5.886,0,0,1,8.756.1q16.2,16.616,32.278,33.344c2.684,2.8,2.387,6.373-.556,9.42q-10.339,10.7-20.706,21.379c-.517.535-.975,1.13-1.46,1.7-5.718,5.331-10.941,11.143-16.327,16.8l-2.185,2.287c-1.846,1.937-4.195,3.427-5.315,6.007l-.056.05c-.353-.3-.582-.049-.809.187ZM125.2,2054.81c-4.995.665-9.992,1.3-14.982,2a15.529,15.529,0,0,0-10.454,5.994c-9.4,12.17-18.689,24.427-28.056,36.625-.7.908-.719,1.428.119,2.284q9.09,9.277,18.056,18.675a2.371,2.371,0,0,0,2.664.667c3.335-.849,6.7-1.6,10.048-2.39a14.293,14.293,0,0,0,7.1-4.094q10.272-10.593,20.515-21.216c2.4-2.493,2.466-5.75.273-7.855-2.169-2.082-4.969-1.813-7.509.781-3.471,3.544-6.9,7.129-10.363,10.682a3.348,3.348,0,0,1-4.115.9,3.516,3.516,0,0,1-2.133-3.657c.017-.336.033-.673.067-1.006q.983-9.783,1.969-19.568a7.344,7.344,0,0,1,3.741-5.97C117.673,2064.612,120.861,2059.2,125.2,2054.81Zm10.787,11.11c-1.528,1.516-2.976,3.124-4.608,4.521-1.311,1.121-1.5,2.078-.615,3.607a9.4,9.4,0,0,1,.815,5.887c-.084.736-.3,1.417.507,2,2.731,1.98,3.781,4.719,3.754,8.071a2.489,2.489,0,0,0,3.747,2.178c2.129-1,4.695-1.8,6.554-.669,3.99,2.422,5.793-.21,7.936-2.566a8.9,8.9,0,0,1,1.059-1.075c1.468-1.142.96-1.562-.532-2.11-8.625-3.174-14.392-9.231-17.653-17.772C136.695,2067.316,136.731,2066.477,135.989,2065.92Zm-44.723,65.039a7.425,7.425,0,0,0-1.971-5.76q-11.26-11.731-22.625-23.364a7.214,7.214,0,0,0-7.234-1.817c-1.475.357-2.065.8-.654,2.217,2.056,2.065,3.925,4.369,5.989,6.383,7.991,7.8,15.542,16.014,23.419,23.916.62.623,1.2,1.94,2,1.608.991-.409.957-1.816,1.07-2.892A1.3,1.3,0,0,0,91.266,2130.959Zm19.72-43.692a24.275,24.275,0,0,0-.563,6.382C114.348,2089.961,114.348,2089.961,110.986,2087.267Z" transform="translate(0 0)" fill="#78b62e"/>
    <path id="Trazado_122312" data-name="Trazado 122312" d="M153.194,2075.848c-12.6-.092-22.6-10.538-22.538-23.54.065-12.951,10.3-23.353,22.856-23.233,12.6.122,22.609,10.576,22.553,23.558C176.008,2065.566,165.788,2075.939,153.194,2075.848Zm19.086-23.374c0-10.832-8.432-19.613-18.863-19.638-10.512-.027-19.114,8.905-19.037,19.761.078,10.777,8.648,19.567,19.034,19.523C163.852,2072.075,172.278,2063.3,172.28,2052.474Z" transform="translate(11.019 4.893)" fill="#78b62e"/>
    <path id="Trazado_122313" data-name="Trazado 122313" d="M191.092,2025.553c0,.74-.515,1.206-.9,1.753-2.2,3.152-2.305,6.076-.017,9.058,1.194,1.556,1.009,2.6-.28,3.9-3.555,3.578-7.033,7.234-10.541,10.86-.709.731-1.408,1.531-2.587,1.147-1.163-.382-1.238-1.428-1.46-2.429-2.493-11.234-9.163-18.412-20.5-21.057-2.581-.6-3.007-1.924-1.2-3.829,3.533-3.719,7.139-7.369,10.676-11.083,1.166-1.222,2.2-1.521,3.69-.388,3.255,2.477,5.695,2.477,8.886.019,1.33-1.028,2.338-1.037,3.487.164,3.254,3.4,6.541,6.776,9.817,10.157A2.55,2.55,0,0,1,191.092,2025.553Zm-12.755,20.428c2.268-2.1,4.487-4.223,6.792-6.249,1.151-1.012,1.493-1.834.661-3.359-1.1-2.012-1.741-4.571-.67-6.561,2.214-4.117-.1-6.332-2.778-8.673a30.056,30.056,0,0,1-2.8-2.891,1.589,1.589,0,0,0-2.329-.4,9.87,9.87,0,0,1-9.638-.023c-.732-.387-1.254-.637-1.956.114-2.386,2.543-4.843,5.022-7.444,7.7C168.645,2029.126,175.186,2036.1,178.337,2045.982Z" transform="translate(14.115 2.579)" fill="#78b62e"/>
    <path id="Trazado_122314" data-name="Trazado 122314" d="M156.078,2012.531a4.433,4.433,0,0,1-.618,1.124c-1.726,1.832-3.486,3.631-5.254,5.423a1.748,1.748,0,0,1-2.676.169,1.766,1.766,0,0,1-.091-2.692c1.771-1.9,3.6-3.754,5.441-5.591a1.7,1.7,0,0,1,2.283-.32A1.971,1.971,0,0,1,156.078,2012.531Z" transform="translate(13.315 2.237)" fill="#78b62e"/>
    <path id="Trazado_122315" data-name="Trazado 122315" d="M147.773,2097.879c1.1-.292,2.192-.418,2.824.792s-.181,2.011-.936,2.814c-1.357,1.444-2.7,2.9-4.04,4.357-1.062.75-2.2,1.508-3.281.168-1.066-1.318-.126-2.294.785-3.235C144.691,2101.158,146.225,2099.512,147.773,2097.879Z" transform="translate(12.607 14.613)" fill="#78b62e"/>
    <path id="Trazado_122316" data-name="Trazado 122316" d="M131.609,2025.308a1.847,1.847,0,0,1-1.561-2.961,39.77,39.77,0,0,1,4.191-4.3,1.564,1.564,0,0,1,2.087.067,1.627,1.627,0,0,1,.523,2.236,23.855,23.855,0,0,1-4.47,4.692A2,2,0,0,1,131.609,2025.308Z" transform="translate(10.876 3.277)" fill="#78b62e"/>
    <path id="Trazado_122317" data-name="Trazado 122317" d="M145.68,2010.657c-.058,1.129-3.282,4.4-4.369,4.437a1.773,1.773,0,0,1-1.66-.911,1.724,1.724,0,0,1,.135-2.1,42.121,42.121,0,0,1,2.955-3.024,1.6,1.6,0,0,1,2.076-.089A1.8,1.8,0,0,1,145.68,2010.657Z" transform="translate(12.252 1.996)" fill="#78b62e"/>
    <path id="Trazado_122318" data-name="Trazado 122318" d="M122.777,2034.15a1.752,1.752,0,0,1-1.642-2.623,15.392,15.392,0,0,1,3.277-3.44,1.766,1.766,0,0,1,2.78,1.387C127.3,2030.743,124.094,2034.142,122.777,2034.15Z" transform="translate(9.631 4.703)" fill="#78b62e"/>
    <path id="Trazado_122319" data-name="Trazado 122319" d="M157.077,2092.232a1.27,1.27,0,0,1-1.565-.8,1.692,1.692,0,0,1,.29-1.859c1.865-1.831,3.693-3.7,5.522-5.566.794-.811,1.475-.161,2.227.084,1.187.388.631,1.636.476,1.858-1.682,2.424-3.371,4.887-6.122,6.275C157.705,2092.32,157.41,2092.232,157.077,2092.232Z" transform="translate(14.52 12.619)" fill="#78b62e"/>
    <path id="Trazado_122320" data-name="Trazado 122320" d="M147.963,2054.808a7.351,7.351,0,0,1-7.206-9.674c.346-1.159,1.078-2.222-.18-3.387a1.48,1.48,0,0,1,.255-2.058c.657-.678,1.542-.991,2.243-.329,1,.947,1.84.63,2.925.228a6.923,6.923,0,0,1,6.895,1.084c1.021.768,1.746,1.759.887,3s-1.888.932-3.048.172c-2.248-1.474-4.532-.965-5.834,1.194-1.064,1.765-1.13,3.6.422,5.065,1.595,1.5,3.464,1.251,5.01-.125,1.968-1.757,4.094-2.957,6.8-2.635a7.333,7.333,0,0,1,6.1,9.665c-.345,1.171-1.03,2.245.2,3.406a1.46,1.46,0,0,1-.279,2.052c-.655.646-1.52.992-2.243.309-.973-.917-1.779-.646-2.885-.251a7,7,0,0,1-7.3-1.357,1.883,1.883,0,0,1-.388-2.874c.775-.917,1.686-.761,2.694-.154,2.534,1.527,4.48,1.221,5.916-.8,1.208-1.7,1.145-4.1-.251-5.3a3.535,3.535,0,0,0-5.022.11C151.907,2053.684,150.062,2054.878,147.963,2054.808Z" transform="translate(12.379 6.298)" fill="#78b62e"/>
  </g>
</svg>
