<svg xmlns="http://www.w3.org/2000/svg" width="37.253" height="67" viewBox="0 0 37.253 67">
  <g id="Grupo_78477" data-name="Grupo 78477" transform="translate(37.253) rotate(90)">
    <g id="Grupo_78414" data-name="Grupo 78414" transform="translate(0 0)">
      <path id="Trazado_114078" data-name="Trazado 114078" d="M162.3,71.056c-2.635,0-3.936,2.821-4.981,5.089-1.059,2.294-1.776,3.7-3.125,3.7s-2.065-1.406-3.121-3.7c-1.045-2.268-2.346-5.089-4.98-5.089s-3.936,2.821-4.981,5.089c-1.057,2.294-1.774,3.7-3.122,3.7s-2.064-1.406-3.121-3.7c-1.045-2.268-2.346-5.089-4.98-5.089s-3.935,2.823-4.979,5.09c-1.057,2.293-1.773,3.7-3.12,3.7s-2.063-1.406-3.12-3.7c-1.045-2.269-2.345-5.09-4.979-5.09s-3.934,2.821-4.979,5.09c-1.057,2.293-1.773,3.7-3.12,3.7-.6,0-1.093.657-1.093,1.465s.49,1.465,1.093,1.465c2.633,0,3.934-2.821,4.979-5.089,1.056-2.294,1.773-3.7,3.12-3.7s2.063,1.406,3.12,3.7c1.045,2.268,2.346,5.089,4.979,5.089s3.934-2.821,4.977-5.089c1.057-2.294,1.773-3.7,3.121-3.7s2.064,1.406,3.121,3.7c1.045,2.268,2.346,5.089,4.98,5.089s3.935-2.821,4.981-5.089c1.056-2.294,1.773-3.7,3.122-3.7s2.064,1.406,3.121,3.7c1.044,2.268,2.346,5.089,4.98,5.089s3.937-2.821,4.982-5.089c1.059-2.294,1.776-3.7,3.124-3.7s2.066,1.406,3.125,3.7c1.045,2.268,2.347,5.089,4.982,5.089.6,0,1.092-.655,1.092-1.465s-.488-1.465-1.092-1.465c-1.349,0-2.066-1.406-3.125-3.7C166.237,73.877,164.936,71.056,162.3,71.056Z" transform="translate(-104.499 -45.522)" fill="#78b62e"/>
      <path id="Trazado_114079" data-name="Trazado 114079" d="M162.3,78.718c-2.635,0-3.936,2.823-4.981,5.089-1.059,2.3-1.776,3.7-3.125,3.7s-2.065-1.406-3.121-3.7c-1.045-2.268-2.346-5.09-4.98-5.09s-3.936,2.823-4.981,5.09c-1.057,2.294-1.774,3.7-3.122,3.7s-2.064-1.406-3.121-3.7c-1.045-2.268-2.346-5.09-4.98-5.09s-3.935,2.824-4.979,5.09c-1.057,2.294-1.773,3.7-3.12,3.7s-2.063-1.406-3.12-3.7c-1.045-2.268-2.345-5.09-4.979-5.09s-3.934,2.823-4.979,5.09c-1.057,2.294-1.773,3.7-3.12,3.7-.6,0-1.093.655-1.093,1.465s.49,1.465,1.093,1.465c2.633,0,3.934-2.823,4.979-5.09,1.056-2.293,1.773-3.7,3.12-3.7s2.063,1.406,3.12,3.7c1.045,2.268,2.346,5.09,4.979,5.09s3.934-2.823,4.977-5.09c1.057-2.293,1.773-3.7,3.121-3.7s2.064,1.406,3.121,3.7c1.045,2.268,2.346,5.09,4.98,5.09s3.935-2.823,4.981-5.09c1.056-2.293,1.773-3.7,3.122-3.7s2.064,1.406,3.121,3.7c1.044,2.268,2.346,5.09,4.98,5.09s3.937-2.823,4.982-5.09c1.059-2.293,1.776-3.7,3.124-3.7s2.066,1.406,3.125,3.7c1.045,2.268,2.347,5.09,4.982,5.09.6,0,1.092-.657,1.092-1.465s-.488-1.465-1.092-1.465c-1.349,0-2.066-1.406-3.125-3.7C166.237,81.541,164.936,78.718,162.3,78.718Z" transform="translate(-104.499 -65.953)" fill="#78b62e"/>
      <path id="Trazado_114080" data-name="Trazado 114080" d="M162.3,86.38c-2.635,0-3.936,2.821-4.981,5.089-1.059,2.294-1.776,3.7-3.125,3.7s-2.065-1.406-3.121-3.7c-1.045-2.268-2.346-5.089-4.98-5.089s-3.936,2.821-4.981,5.089c-1.057,2.294-1.774,3.7-3.122,3.7s-2.064-1.406-3.121-3.7c-1.045-2.268-2.346-5.089-4.98-5.089s-3.935,2.821-4.979,5.089c-1.057,2.294-1.773,3.7-3.12,3.7s-2.063-1.406-3.12-3.7c-1.045-2.268-2.345-5.089-4.979-5.089s-3.934,2.821-4.979,5.089c-1.057,2.294-1.773,3.7-3.12,3.7-.6,0-1.093.655-1.093,1.465s.49,1.465,1.093,1.465c2.633,0,3.934-2.823,4.979-5.09,1.056-2.293,1.773-3.7,3.12-3.7s2.063,1.406,3.12,3.7c1.045,2.268,2.346,5.09,4.979,5.09s3.934-2.823,4.977-5.089c1.057-2.294,1.773-3.7,3.121-3.7s2.064,1.406,3.121,3.7c1.045,2.266,2.346,5.089,4.98,5.089s3.935-2.823,4.981-5.089c1.056-2.294,1.773-3.7,3.122-3.7s2.064,1.406,3.121,3.7c1.044,2.266,2.346,5.089,4.98,5.089s3.937-2.823,4.982-5.089c1.059-2.294,1.776-3.7,3.124-3.7s2.066,1.406,3.125,3.7c1.045,2.266,2.347,5.089,4.982,5.089.6,0,1.092-.657,1.092-1.465s-.488-1.465-1.092-1.465c-1.349,0-2.066-1.406-3.125-3.7C166.237,89.2,164.936,86.38,162.3,86.38Z" transform="translate(-104.499 -86.38)" fill="#78b62e"/>
    </g>
  </g>
</svg>
