<svg xmlns="http://www.w3.org/2000/svg" xmlns:xlink="http://www.w3.org/1999/xlink" width="851.914" height="300.982" viewBox="0 0 851.914 300.982">
  <defs>
    <linearGradient id="linear-gradient" x1="0.5" x2="0.5" y2="1" gradientUnits="objectBoundingBox">
      <stop offset="0" stop-color="#4090de"/>
      <stop offset="1" stop-color="#3c6d9d"/>
    </linearGradient>
    <linearGradient id="linear-gradient-3" x1="0.5" x2="0.5" y2="1" gradientUnits="objectBoundingBox">
      <stop offset="0" stop-color="#5f9025"/>
      <stop offset="1" stop-color="#78b62e"/>
    </linearGradient>
  </defs>
  <g id="Grupo_144558" data-name="Grupo 144558" transform="translate(-366.586 -5599.009)">
    <rect id="Rectángulo_37371" data-name="Rectángulo 37371" width="355.168" height="67.865" rx="10" transform="translate(609.316 5627.333)" fill="url(#linear-gradient)"/>
    <rect id="Rectángulo_37374" data-name="Rectángulo 37374" width="293.577" height="67.865" rx="10" transform="translate(640.692 5804.915)" fill="url(#linear-gradient)"/>
    <g id="Rectángulo_37372" data-name="Rectángulo 37372" transform="translate(608.011 5627.333)" fill="#fff" stroke="#1565c0" stroke-width="1">
      <rect width="63.95" height="67.865" rx="10" stroke="none"/>
      <rect x="0.5" y="0.5" width="62.95" height="66.865" rx="9.5" fill="none"/>
    </g>
    <g id="Rectángulo_37375" data-name="Rectángulo 37375" transform="translate(639.387 5804.915)" fill="#fff" stroke="#1565c0" stroke-width="1">
      <rect width="63.95" height="67.865" rx="10" stroke="none"/>
      <rect x="0.5" y="0.5" width="62.95" height="66.865" rx="9.5" fill="none"/>
    </g>
    <text id="Proceso_de_transformación" data-name="Proceso de transformación" transform="translate(691.251 5668.519)" fill="#fff" font-size="20" font-family="Roboto-Regular, Roboto"><tspan x="0" y="0">Proceso de transformación</tspan></text>
    <text id="Sistema_de_control" data-name="Sistema de control" transform="translate(722.628 5846.102)" fill="#fff" font-size="20" font-family="Roboto-Regular, Roboto"><tspan x="0" y="0">Sistema de control</tspan></text>
    <g id="OfmmeW.tif" transform="translate(624.929 5639.113)">
      <g id="Grupo_142298" data-name="Grupo 142298" transform="translate(0 0)">
        <path id="Trazado_118067" data-name="Trazado 118067" d="M1318.747,2265.128v-35.27c.411-1.163,1.375-1.245,2.409-1.154,0-.191,0-.309,0-.427a1.527,1.527,0,0,1,1.732-1.722h.945c0-.31,0-.561,0-.812,0-1.348.514-1.866,1.851-1.866q8.387,0,16.773-.01a1.651,1.651,0,0,1,1.3.415c2.118,2.172,4.241,4.341,6.342,6.53a1.242,1.242,0,0,1,.3.785q.026,10.58.017,21.16,0,3.571,0,7.143a1.521,1.521,0,0,1-1.668,1.658c-.293,0-.586,0-.9,0-.066.721.119,1.448-.426,2.031-.56.6-1.308.43-2,.484,0,.132,0,.206,0,.28-.016,1.472-.488,1.938-1.963,1.938q-11.42,0-22.84.011A1.751,1.751,0,0,1,1318.747,2265.128Zm23.556-40h-16.608c-.612,0-.613,0-.613.625v33.93c0,.624,0,.625.62.625h22.842c.627,0,.629,0,.629-.617q0-13.594,0-27.189v-.5h-5.005c-1.319,0-1.865-.548-1.865-1.871C1342.3,2228.481,1342.3,2226.832,1342.3,2225.126Zm4.257,36.431h-20.894c-1.293,0-1.833-.545-1.833-1.85q0-15.666,0-31.332v-.57h-.74c-.687,0-.688,0-.688.686v33.653c0,.662,0,.663.669.663q11.217,0,22.434,0C1346.638,2262.8,1346.632,2263.092,1346.56,2261.557Zm-2.411,2.5h-21.164c-1.3,0-1.83-.537-1.83-1.85v-32.24c-.11-.009-.18-.017-.251-.019-.909-.025-.909-.025-.909.869v33.521c0,.7,0,.7.718.7h22.614C1344.226,2265.039,1344.226,2265.039,1344.149,2264.057Zm-.6-38.208c0,1.592,0,3.047,0,4.5,0,.317.165.407.451.4.683-.008,1.367,0,2.05,0h2.278Z" transform="translate(-1318.747 -2223.866)" fill="#12263f"/>
        <path id="Trazado_118068" data-name="Trazado 118068" d="M1425.25,2345.686h8.693a2.921,2.921,0,0,1,.4.007.62.62,0,0,1-.011,1.237,2.842,2.842,0,0,1-.356.006H1416.5a2.019,2.019,0,0,1-.4-.012.619.619,0,0,1,.011-1.227,2.208,2.208,0,0,1,.4-.01Z" transform="translate(-1406.909 -2334.782)" fill="#12263f"/>
        <path id="Trazado_118069" data-name="Trazado 118069" d="M1425.247,2386.87h-8.693a2.735,2.735,0,0,1-.4-.008.62.62,0,0,1,.02-1.236,2.551,2.551,0,0,1,.312-.005h17.563c.089,0,.179,0,.267,0a.617.617,0,0,1,.615.631.61.61,0,0,1-.635.613c-.118.008-.238,0-.357,0Z" transform="translate(-1406.922 -2371.144)" fill="#12263f"/>
        <path id="Trazado_118070" data-name="Trazado 118070" d="M1425.2,2427.768h-8.692a2.08,2.08,0,0,1-.4-.012.619.619,0,0,1,0-1.226,2.121,2.121,0,0,1,.4-.011h17.474a2.1,2.1,0,0,1,.4.011.619.619,0,0,1,0,1.226,2.1,2.1,0,0,1-.4.011Z" transform="translate(-1406.908 -2408.381)" fill="#12263f"/>
        <path id="Trazado_118071" data-name="Trazado 118071" d="M1425.278,2468.688h-8.737a2.546,2.546,0,0,1-.4-.008.62.62,0,0,1-.009-1.233,2.162,2.162,0,0,1,.356-.008h17.519a1.876,1.876,0,0,1,.4.015.618.618,0,0,1,.009,1.218,2.116,2.116,0,0,1-.444.016Z" transform="translate(-1406.915 -2445.641)" fill="#12263f"/>
        <path id="Trazado_118072" data-name="Trazado 118072" d="M1422.47,2508.6H1416.5a2,2,0,0,1-.4-.013.619.619,0,0,1,.016-1.227,1.96,1.96,0,0,1,.356-.01H1428.5a2.134,2.134,0,0,1,.312.007.62.62,0,0,1-.016,1.237,2.887,2.887,0,0,1-.356.006Z" transform="translate(-1406.908 -2481.983)" fill="#12263f"/>
      </g>
    </g>
    <rect id="Rectángulo_37373" data-name="Rectángulo 37373" width="135.731" height="67.865" rx="10" transform="translate(719.034 5716.705)" fill="url(#linear-gradient-3)"/>
    <text id="Empresa" transform="translate(745.137 5756.891)" fill="#fff" font-size="19" font-family="Roboto-Regular, Roboto"><tspan x="0" y="0">Empresa</tspan></text>
    <g id="Grupo_144557" data-name="Grupo 144557">
      <rect id="Rectángulo_37380" data-name="Rectángulo 37380" width="135.731" height="67.865" rx="10" transform="translate(366.586 5716.705)" fill="url(#linear-gradient-3)"/>
      <text id="Exterior" transform="translate(396.175 5756.891)" fill="#fff" font-size="19" font-family="Roboto-Regular, Roboto"><tspan x="0" y="0">Exterior</tspan></text>
      <g id="Rectángulo_37376" data-name="Rectángulo 37376" transform="translate(570.824 5599.009)" fill="none" stroke="#12263f" stroke-width="4" stroke-dasharray="7">
        <rect width="433.461" height="300.982" rx="2" stroke="none"/>
        <rect x="2" y="2" width="429.461" height="296.982" fill="none"/>
      </g>
      <path id="Unión_60" data-name="Unión 60" d="M0,0H79.869V12.674H0Z" transform="translate(612.543 5756.848) rotate(180)" fill="#bec1c7"/>
      <path id="Unión_62" data-name="Unión 62" d="M0,0H79.869V12.674H0Z" transform="translate(1036.026 5756.848) rotate(180)" fill="#bec1c7"/>
      <path id="Unión_61" data-name="Unión 61" d="M22.758,16.25,0,32.5V0Z" transform="translate(606.171 5734.261)" fill="#bec1c7"/>
      <path id="Unión_63" data-name="Unión 63" d="M22.758,16.25,0,32.5V0Z" transform="translate(1029.654 5734.261)" fill="#bec1c7"/>
      <rect id="Rectángulo_37381" data-name="Rectángulo 37381" width="135.731" height="67.865" rx="10" transform="translate(1082.769 5716.705)" fill="url(#linear-gradient-3)"/>
      <text id="Exterior-2" data-name="Exterior" transform="translate(1112.358 5756.891)" fill="#fff" font-size="19" font-family="Roboto-Regular, Roboto"><tspan x="0" y="0">Exterior</tspan></text>
    </g>
    <g id="tJppI8" transform="translate(650.66 5818.566)">
      <g id="Grupo_142299" data-name="Grupo 142299" transform="translate(0 0)">
        <path id="Trazado_118073" data-name="Trazado 118073" d="M574.041,2570.332a3,3,0,0,1-.534-2.02q.037-3.963,0-7.926a2.843,2.843,0,0,1,.667-2.048,3.241,3.241,0,0,1-.665-2.471c.019-2.642.005-5.284.007-7.926a2.461,2.461,0,0,1,2.515-2.521q16.434-.007,32.869,0a2.487,2.487,0,0,1,2.523,2.479c.017,2.92.027,5.84-.015,8.76a3.9,3.9,0,0,1-.467,1.42c-.093.209-.131.336.011.528a2.525,2.525,0,0,1,.481,1.606c-.015.772,0,1.545,0,2.317a.78.78,0,1,1-1.549.023c-.01-.8,0-1.606-.005-2.409a.946.946,0,0,0-1-1.031c-.17-.007-.34,0-.51,0h-31.8a6.306,6.306,0,0,0-.648.015.861.861,0,0,0-.848.913q-.008,4.334,0,8.667c0,.624.383.979,1.08,1,.633.018,1.267,0,1.9,0H588.8c.63,0,.974.253.989.721.016.493-.393.837-1.011.838q-6.3,0-12.61,0c-.834,0-1.106.27-1.106,1.109q0,4.148,0,8.3c0,.831.349,1.177,1.181,1.177q7.139,0,14.279,0a1.361,1.361,0,0,1,.581.093.677.677,0,0,1,.379.772.793.793,0,0,1-.645.646,1.96,1.96,0,0,1-.506.032q-7.023,0-14.047,0a2.5,2.5,0,0,1-2.313-1.092,2.847,2.847,0,0,1-.439-1.373c-.039-2.935-.045-5.871,0-8.806A7.647,7.647,0,0,1,574.041,2570.332Zm18.438-23.356H576.165c-.767,0-1.1.33-1.1,1.092q0,4.147,0,8.294c0,.9.3,1.2,1.184,1.2h32.443c.856,0,1.183-.32,1.184-1.163q0-4.1,0-8.2c0-.909-.313-1.221-1.221-1.221Z" transform="translate(-573.505 -2545.417)" fill="#12263f"/>
        <path id="Trazado_118074" data-name="Trazado 118074" d="M778.878,2763.046a11.183,11.183,0,0,1,22.365-.019,11.183,11.183,0,0,1-22.365.019Zm1.547-.021a9.561,9.561,0,0,0,9.649,9.634,9.624,9.624,0,0,0,.117-19.247A9.618,9.618,0,0,0,780.425,2763.024Z" transform="translate(-759.839 -2732.734)" fill="#12263f"/>
        <path id="Trazado_118075" data-name="Trazado 118075" d="M622.419,2723.267a2.5,2.5,0,1,1-.272,4.993,2.579,2.579,0,0,1-2.32-2.592A2.517,2.517,0,0,1,622.419,2723.267Zm-.051,3.442a1.006,1.006,0,0,0,.96-.929.978.978,0,0,0-1.956-.012A1,1,0,0,0,622.368,2726.709Z" transform="translate(-615.529 -2706.776)" fill="#12263f"/>
        <path id="Trazado_118076" data-name="Trazado 118076" d="M622.414,2854.378a2.451,2.451,0,0,1,2.513,2.51,2.522,2.522,0,0,1-5.043-.06A2.469,2.469,0,0,1,622.414,2854.378Zm.97,2.5a.952.952,0,0,0-.927-.949.934.934,0,0,0-1.026.9,1.012,1.012,0,0,0,.976.985A1.03,1.03,0,0,0,623.384,2856.876Z" transform="translate(-615.585 -2825.733)" fill="#12263f"/>
        <path id="Trazado_118077" data-name="Trazado 118077" d="M717.093,2733.981c-.8,0-1.6,0-2.406,0-.614,0-.951-.277-.958-.761-.008-.508.331-.79.975-.791q2.406-.006,4.812,0c.578,0,.954.316.953.779s-.386.768-.971.772C718.7,2733.985,717.894,2733.98,717.093,2733.981Z" transform="translate(-700.729 -2715.089)" fill="#12263f"/>
        <path id="Trazado_118078" data-name="Trazado 118078" d="M716.156,2771.671c-.556,0-1.112,0-1.668,0a.732.732,0,0,1-.8-.664.657.657,0,0,1,.678-.8c1.227-.037,2.457-.032,3.685,0a.662.662,0,0,1,.623.769.71.71,0,0,1-.717.693c-.6.013-1.2,0-1.807,0Z" transform="translate(-700.694 -2749.343)" fill="#12263f"/>
        <path id="Trazado_118079" data-name="Trazado 118079" d="M722.936,2603.1q-4.238,0-8.477,0a.854.854,0,0,1-.853-.432.748.748,0,0,1,.457-1.041,2.614,2.614,0,0,1,.684-.072q8.245-.005,16.49,0c.108,0,.216,0,.324,0a.736.736,0,0,1,.8.81c-.013.495-.26.729-.806.73Q727.244,2603.108,722.936,2603.1Z" transform="translate(-700.549 -2596.354)" fill="#12263f"/>
        <path id="Trazado_118080" data-name="Trazado 118080" d="M723.035,2640.746q-4.164,0-8.329,0c-.664,0-.991-.255-.994-.759a.718.718,0,0,1,.672-.74c.138-.011.278,0,.417,0h16.367c.216,0,.432-.014.648-.016a.63.63,0,0,1,.7.584c.071.5-.106.809-.515.892a3.459,3.459,0,0,1-.686.053q-4.141.005-8.282,0Z" transform="translate(-700.715 -2630.53)" fill="#12263f"/>
        <path id="Trazado_118081" data-name="Trazado 118081" d="M622.365,2597.4a2.5,2.5,0,1,1,2.535-2.479A2.551,2.551,0,0,1,622.365,2597.4Zm0-1.554a.946.946,0,1,0-.971-.961A.982.982,0,0,0,622.369,2595.841Z" transform="translate(-615.553 -2588.046)" fill="#12263f"/>
        <path id="Trazado_118082" data-name="Trazado 118082" d="M839.615,2833.232a2.625,2.625,0,0,1,.285-.427q2.828-2.84,5.667-5.671a4.334,4.334,0,0,1,.4-.381.728.728,0,0,1,1.005.065.8.8,0,0,1,.044,1.016c-.178.212-.384.4-.58.6q-3.079,3.081-6.16,6.161c-.635.635-.946.635-1.589,0q-1.495-1.488-2.982-2.982a2.8,2.8,0,0,1-.25-.273.791.791,0,0,1,.064-1.083.724.724,0,0,1,1.038.051q1.176,1.143,2.323,2.317a6.481,6.481,0,0,1,.482.62Z" transform="translate(-811.009 -2800.518)" fill="#12263f"/>
      </g>
    </g>
  </g>
</svg>
