<svg xmlns="http://www.w3.org/2000/svg" width="442.72" height="474.096" viewBox="0 0 442.72 474.096"><g transform="translate(-318.677 5.922)"><g transform="matrix(-0.966, 0.259, -0.259, -0.966, 467.884, 24.859)"><path d="M406.676,72.176c9.487,3.5,19.973,3.694,29.223,3.863a2.067,2.067,0,0,0,1.727-.868,2,2,0,0,0,.25-1.9,41.346,41.346,0,0,0-19.624-22,41.834,41.834,0,0,0-29.412-3.217,2.057,2.057,0,0,0-.722.349,1.976,1.976,0,0,0-.406.042A2.06,2.06,0,0,0,386.3,49.5a2.037,2.037,0,0,0-.2,1.382C388.033,60.053,395.916,68.214,406.676,72.176Z" transform="translate(-378.432 -45.234)" fill="#9fbe37"/><path d="M429.588,78.211a.7.7,0,0,0,.326-.929l-.038-.071c-1.066-2.2-2.193-4.378-3.33-6.538-.6-1.146-1.212-2.278-1.83-3.406q2.816,1.422,5.628,2.859,6.453,3.319,12.869,6.736l.01,0a.6.6,0,0,0,.6-1.042c-4.128-2.59-8.34-5-12.6-7.349-1.962-1.085-3.944-2.132-5.93-3.165.491-.08.976-.16,1.467-.236l4.472-.722c2.972-.519,5.944-1.043,8.9-1.67a.6.6,0,0,0-.174-1.193c-3.014.255-6.01.613-9.005.976l-4.491.6c-1.453.208-2.906.382-4.359.613-1.269-.646-2.538-1.3-3.816-1.939-1.533-.745-3.08-1.467-4.623-2.189l2.679-.943c1.547-.552,3.1-1.08,4.647-1.66,3.085-1.137,6.17-2.283,9.218-3.529a.6.6,0,0,0-.392-1.137c-3.17.887-6.307,1.877-9.444,2.873-1.571.486-3.123,1.028-4.684,1.538l-4.68,1.566-.066.028c-1.967-.9-3.939-1.778-5.925-2.627-.863-.363-1.726-.712-2.595-1.061,1.991-1.009,3.986-2,5.953-3.061,2.472-1.293,4.934-2.613,7.364-4a.6.6,0,0,0-.533-1.076c-2.571,1.09-5.113,2.245-7.647,3.425-2.543,1.151-5.033,2.406-7.557,3.6a1.244,1.244,0,0,0-.127.094c-2.816-1.094-11.7-4.849-14.576-5.783a.658.658,0,0,0-.448,1.236l.01,0c2.986,1.212,12,5.184,14.954,6.467,1.2,2.722,2.458,5.42,3.694,8.123,1.387,2.911,2.769,5.816,4.255,8.675a.664.664,0,0,0,.821.311.653.653,0,0,0,.378-.849c-1.142-3.014-2.4-5.977-3.642-8.944-.892-2.028-1.778-4.057-2.68-6.081.533.236,1.071.458,1.6.7q3.283,1.493,6.557,3.019c1.231,2.368,2.439,4.75,3.713,7.1,1.4,2.594,2.807,5.184,4.293,7.736a.658.658,0,0,0,1.17-.6c-1.193-2.7-2.462-5.359-3.745-8.015-.764-1.59-1.552-3.165-2.349-4.741,1.165.557,2.33,1.1,3.486,1.679,1.368.656,2.727,1.34,4.085,2.014,1.132,1.991,2.241,4,3.411,5.972q1.641,2.795,3.354,5.547a.735.735,0,0,0,.108.269l.406.561A.685.685,0,0,0,429.588,78.211Z" transform="translate(-384.443 -46.415)" fill="#507533"/></g><g transform="translate(318.677 437.153)"><path d="M304.171,199.425c-6.726,4.657-11.73,11.508-16.142,17.553a1.663,1.663,0,0,0-.229,1.543,1.613,1.613,0,0,0,1.141,1.05,33.473,33.473,0,0,0,23.685-2.765,33.845,33.845,0,0,0,15.8-17.977,1.67,1.67,0,0,0,.107-.64,1.693,1.693,0,0,0,.159-.288,1.669,1.669,0,0,0-.036-1.42,1.638,1.638,0,0,0-.821-.774C320.862,192.72,311.8,194.147,304.171,199.425Z" transform="translate(-287.389 -192.218)" fill="#9fbe37"/><path d="M293.275,209.452a.562.562,0,0,0,.465.644l.064.011c1.955.318,3.918.581,5.88.833,1.032.138,2.069.256,3.105.372q-2.252,1.2-4.512,2.4-5.2,2.732-10.442,5.39l0,0a.487.487,0,0,0,.411.882c3.632-1.527,7.189-3.2,10.721-4.925,1.629-.794,3.244-1.62,4.852-2.454-.175.361-.349.721-.529,1.082l-1.6,3.294c-1.039,2.209-2.073,4.421-3.031,6.672a.488.488,0,0,0,.871.438c1.232-2.112,2.389-4.262,3.541-6.415l1.688-3.248c.54-1.059,1.1-2.105,1.622-3.171,1.019-.542,2.042-1.08,3.058-1.626,1.207-.667,2.4-1.356,3.6-2.044l-.622,2.212c-.352,1.282-.728,2.559-1.059,3.847-.681,2.572-1.354,5.147-1.949,7.744a.487.487,0,0,0,.935.27c.885-2.513,1.69-5.05,2.488-7.588.408-1.266.771-2.545,1.159-3.818l1.139-3.825.011-.057q2.259-1.327,4.494-2.7c.64-.4,1.275-.814,1.91-1.225-.261,1.785-.531,3.568-.744,5.363-.29,2.239-.563,4.482-.778,6.733a.488.488,0,0,0,.962.15c.472-2.212.889-4.433,1.286-6.656.422-2.219.749-4.453,1.127-6.678a1.217,1.217,0,0,0,0-.129c2.033-1.356,8.65-5.49,10.6-6.962a.531.531,0,0,0-.608-.871l-.007,0c-2.191,1.413-9.01,5.53-11.233,6.894-2.361-.472-4.732-.894-7.1-1.332-2.568-.436-5.133-.871-7.719-1.216a.532.532,0,0,0-.2,1.043c2.527.642,5.072,1.193,7.617,1.744,1.756.354,3.512.71,5.27,1.055-.4.243-.8.495-1.2.735q-2.518,1.48-5.05,2.935c-2.139-.286-4.278-.592-6.424-.839-2.366-.286-4.736-.556-7.114-.758a.532.532,0,0,0-.15,1.053c2.341.465,4.693.862,7.046,1.245,1.406.236,2.817.445,4.228.651-.91.51-1.813,1.03-2.729,1.529-1.071.6-2.153,1.18-3.233,1.765-1.847-.175-3.689-.374-5.537-.517q-2.613-.211-5.236-.356a.507.507,0,0,0-.227-.054l-.56,0A.563.563,0,0,0,293.275,209.452Z" transform="translate(-287.565 -193.309)" fill="#507533"/></g><g transform="translate(719.677 350.153)"><path d="M309.764,198.871c6.017,4.166,10.493,10.295,14.44,15.7a1.487,1.487,0,0,1,.2,1.38,1.443,1.443,0,0,1-1.021.94A29.944,29.944,0,0,1,302.2,214.42a30.277,30.277,0,0,1-14.134-16.082,1.5,1.5,0,0,1-.1-.572,1.514,1.514,0,0,1-.142-.258,1.493,1.493,0,0,1,.032-1.27,1.465,1.465,0,0,1,.735-.692C294.833,192.873,302.944,194.149,309.764,198.871Z" transform="translate(-283.056 -192.423)" fill="#9fbe37"/><path d="M324.178,207.75a.5.5,0,0,1-.416.576l-.057.01c-1.749.284-3.5.52-5.26.745-.923.124-1.851.229-2.778.333q2.015,1.075,4.036,2.143,4.651,2.444,9.341,4.822l0,0a.436.436,0,0,1-.367.789c-3.249-1.366-6.431-2.859-9.59-4.406-1.457-.71-2.9-1.449-4.341-2.2.156.323.312.645.473.968l1.431,2.947c.929,1.977,1.855,3.955,2.711,5.968a.437.437,0,0,1-.779.392c-1.1-1.889-2.137-3.813-3.168-5.739l-1.51-2.906c-.483-.948-.984-1.883-1.451-2.837-.911-.485-1.826-.966-2.736-1.455-1.08-.6-2.149-1.213-3.218-1.828l.556,1.979c.314,1.147.651,2.289.948,3.442.609,2.3,1.211,4.6,1.743,6.928a.436.436,0,0,1-.836.241c-.791-2.248-1.512-4.517-2.226-6.788-.365-1.132-.69-2.277-1.037-3.415l-1.019-3.421-.01-.051q-2.021-1.187-4.02-2.415c-.572-.361-1.14-.729-1.709-1.1.233,1.6.475,3.192.666,4.8.26,2,.5,4.01.7,6.023a.436.436,0,0,1-.86.134c-.422-1.979-.8-3.965-1.151-5.954-.378-1.985-.67-3.983-1.009-5.974a1.091,1.091,0,0,1,0-.116c-1.818-1.213-7.738-4.911-9.485-6.228a.475.475,0,0,1,.544-.779l.006,0c1.96,1.264,8.06,4.947,10.049,6.167,2.112-.422,4.233-.8,6.35-1.191,2.3-.39,4.592-.779,6.906-1.088a.476.476,0,0,1,.181.933c-2.261.574-4.538,1.067-6.814,1.561-1.571.317-3.141.635-4.714.944.359.217.716.442,1.077.657q2.252,1.324,4.517,2.626c1.914-.256,3.827-.53,5.747-.751,2.117-.256,4.237-.5,6.364-.678a.476.476,0,0,1,.134.942c-2.094.416-4.2.771-6.3,1.114-1.258.211-2.52.4-3.783.582.814.457,1.621.921,2.441,1.368.958.536,1.926,1.055,2.892,1.579,1.652-.156,3.3-.335,4.953-.463q2.338-.189,4.684-.319a.453.453,0,0,1,.2-.049l.5,0A.5.5,0,0,1,324.178,207.75Z" transform="translate(-287.565 -193.309)" fill="#507533"/></g></g></svg>