<svg xmlns="http://www.w3.org/2000/svg" width="129.852" height="53.837" viewBox="0 0 129.852 53.837"><g transform="translate(-949.333 -448.984)"><g transform="translate(949.333 448.984)"><path d="M216.521,87.992c-5.107,0-7.629-4.077-9.654-7.354-2.052-3.316-3.441-5.348-6.056-5.348s-4,2.032-6.049,5.348c-2.025,3.277-4.546,7.354-9.651,7.354s-7.629-4.077-9.654-7.354c-2.049-3.316-3.439-5.348-6.051-5.348s-4,2.032-6.049,5.348c-2.025,3.277-4.546,7.354-9.651,7.354s-7.626-4.079-9.649-7.357c-2.049-3.313-3.436-5.346-6.047-5.346s-4,2.032-6.047,5.346c-2.025,3.28-4.544,7.357-9.649,7.357s-7.624-4.077-9.649-7.357c-2.049-3.313-3.436-5.346-6.047-5.346a2.117,2.117,0,1,1,0-4.233c5.1,0,7.624,4.077,9.649,7.354,2.047,3.316,3.436,5.348,6.047,5.348s4-2.032,6.047-5.348c2.025-3.277,4.546-7.354,9.649-7.354s7.624,4.077,9.647,7.354c2.049,3.316,3.436,5.348,6.049,5.348s4-2.032,6.049-5.348c2.025-3.277,4.546-7.354,9.651-7.354s7.626,4.077,9.654,7.354c2.047,3.316,3.436,5.348,6.051,5.348s4-2.032,6.049-5.348c2.023-3.277,4.546-7.354,9.651-7.354s7.631,4.077,9.656,7.354c2.052,3.316,3.441,5.348,6.054,5.348s4-2.032,6.056-5.348c2.025-3.277,4.549-7.354,9.656-7.354a2.117,2.117,0,1,1,0,4.233c-2.615,0-4,2.032-6.056,5.348C224.152,83.915,221.631,87.992,216.521,87.992Z" transform="translate(-104.499 -71.056)" fill="#fff"/><path d="M216.521,95.656c-5.107,0-7.629-4.079-9.654-7.354-2.052-3.318-3.441-5.351-6.056-5.351s-4,2.032-6.049,5.348c-2.025,3.277-4.546,7.357-9.651,7.357s-7.629-4.079-9.654-7.357c-2.049-3.316-3.439-5.348-6.051-5.348s-4,2.032-6.049,5.348c-2.025,3.277-4.546,7.357-9.651,7.357s-7.626-4.082-9.649-7.357c-2.049-3.316-3.436-5.348-6.047-5.348s-4,2.032-6.047,5.348c-2.025,3.277-4.544,7.357-9.649,7.357s-7.624-4.079-9.649-7.357c-2.049-3.316-3.436-5.348-6.047-5.348a2.117,2.117,0,1,1,0-4.233c5.1,0,7.624,4.079,9.649,7.357,2.047,3.313,3.436,5.346,6.047,5.346s4-2.032,6.047-5.346c2.025-3.277,4.546-7.357,9.649-7.357s7.624,4.079,9.647,7.357c2.049,3.313,3.436,5.346,6.049,5.346s4-2.032,6.049-5.346c2.025-3.277,4.546-7.357,9.651-7.357s7.626,4.079,9.654,7.357c2.047,3.313,3.436,5.346,6.051,5.346s4-2.032,6.049-5.346c2.023-3.277,4.546-7.357,9.651-7.357s7.631,4.079,9.656,7.357c2.052,3.313,3.441,5.346,6.054,5.346s4-2.032,6.056-5.346c2.025-3.277,4.549-7.357,9.656-7.357a2.117,2.117,0,1,1,0,4.233c-2.615,0-4,2.032-6.056,5.348C224.152,91.577,221.631,95.656,216.521,95.656Z" transform="translate(-104.499 -60.268)" fill="#fff"/><path d="M216.521,103.316c-5.107,0-7.629-4.077-9.654-7.354-2.052-3.316-3.441-5.348-6.056-5.348s-4,2.032-6.049,5.348c-2.025,3.277-4.546,7.354-9.651,7.354s-7.629-4.077-9.654-7.354c-2.049-3.316-3.439-5.348-6.051-5.348s-4,2.032-6.049,5.348c-2.025,3.277-4.546,7.354-9.651,7.354s-7.626-4.077-9.649-7.354c-2.049-3.316-3.436-5.348-6.047-5.348s-4,2.032-6.047,5.348c-2.025,3.277-4.544,7.354-9.649,7.354s-7.624-4.077-9.649-7.354c-2.049-3.316-3.436-5.348-6.047-5.348a2.117,2.117,0,1,1,0-4.233c5.1,0,7.624,4.079,9.649,7.357,2.047,3.313,3.436,5.346,6.047,5.346s4-2.032,6.047-5.346c2.025-3.277,4.546-7.357,9.649-7.357s7.624,4.079,9.647,7.354c2.049,3.316,3.436,5.348,6.049,5.348s4-2.032,6.049-5.348c2.025-3.275,4.546-7.354,9.651-7.354s7.626,4.079,9.654,7.354c2.047,3.316,3.436,5.348,6.051,5.348s4-2.032,6.049-5.348c2.023-3.275,4.546-7.354,9.651-7.354s7.631,4.079,9.656,7.354c2.052,3.316,3.441,5.348,6.054,5.348s4-2.032,6.056-5.348c2.025-3.275,4.549-7.354,9.656-7.354a2.117,2.117,0,1,1,0,4.233c-2.615,0-4,2.032-6.056,5.348C224.152,99.239,221.631,103.316,216.521,103.316Z" transform="translate(-104.499 -49.479)" fill="#fff"/></g></g></svg>