<svg id="jS21yb.tif" xmlns="http://www.w3.org/2000/svg" width="36.226" height="37.441" viewBox="0 0 36.226 37.441">
  <g id="Grupo_142300" data-name="Grupo 142300" transform="translate(0)">
    <path id="Trazado_118083" data-name="Trazado 118083" d="M-104.812,2637.918c1.267-1.5,2.368-2.818,3.476-4.125a2.233,2.233,0,0,1,3.57-.32c2.2,1.82,2.265,2.523.424,4.715-2.357,2.806-4.723,5.6-7.057,8.43a1.881,1.881,0,0,0-.4,1.1c-.027,4.315-.016,8.63-.018,12.945,0,1.593-.681,2.271-2.279,2.271q-11.462,0-22.925,0c-1.549,0-2.241-.688-2.241-2.23q0-16.494,0-32.988a1.92,1.92,0,0,1,2.182-2.211c6.264,0,12.528,0,18.792-.01a2.448,2.448,0,0,1,1.878.763q1.906,1.953,3.859,3.861a2.351,2.351,0,0,1,.742,1.809C-104.826,2633.846-104.812,2635.761-104.812,2637.918Zm-1.247-6.175c-1.372,0-2.663,0-3.955,0-.908,0-1.031-.128-1.034-1.043,0-1.291,0-2.582,0-3.892a3.412,3.412,0,0,0-.378-.05q-9.354,0-18.707-.01c-.769,0-.883.419-.883,1.052q.012,16.41.007,32.82c0,.958.115,1.071,1.085,1.071q11.38,0,22.761,0c1.007,0,1.1-.1,1.105-1.129q0-5.535,0-11.07v-.9c-1.133,1.343-2.109,2.507-3.1,3.661a2.251,2.251,0,0,1-.671.633q-2.3,1.048-4.641,2.019a.614.614,0,0,1-.885-.744c.368-1.647.767-3.287,1.186-4.922a2.023,2.023,0,0,1,.459-.707c2.145-2.576,4.249-5.187,6.468-7.7a4.322,4.322,0,0,0,1.206-3.343C-106.138,2635.607-106.059,2633.713-106.059,2631.744Zm4.017,4.811-10.645,12.694,2.605,2.186,10.647-12.69Z" transform="translate(132.259 -2625.498)" fill="#12263f"/>
    <path id="Trazado_118084" data-name="Trazado 118084" d="M-101.892,2754.037h-1.71a.675.675,0,0,1-.765-.764c0-1.166,0-2.332,0-3.5a.647.647,0,0,1,.721-.723c1.166,0,2.332,0,3.5,0a.675.675,0,0,1,.765.763c0,1.166,0,2.332,0,3.5a.649.649,0,0,1-.722.724C-100.7,2754.041-101.3,2754.037-101.892,2754.037Zm1.248-3.689h-2.418v2.377h2.418Z" transform="translate(108.735 -2729.701)" fill="#12263f"/>
    <path id="Trazado_118085" data-name="Trazado 118085" d="M-101.867,2796.821c.544,0,1.088.007,1.632,0s.828.225.826.783q0,1.711,0,3.421c0,.556-.28.793-.821.789q-1.671-.012-3.342,0c-.6.005-.836-.285-.829-.863.013-1.088.016-2.177,0-3.265-.01-.637.288-.89.9-.868C-102.956,2796.836-102.412,2796.821-101.867,2796.821Zm1.161,3.726v-2.422h-2.381v2.422Z" transform="translate(108.765 -2769.986)" fill="#12263f"/>
    <path id="Trazado_118086" data-name="Trazado 118086" d="M-58.175,2713.177c1.764,0,3.528,0,5.292,0,.481,0,.947.061.923.663-.022.546-.472.59-.919.589q-5.292-.007-10.583,0c-.481,0-.946-.06-.922-.663.022-.548.472-.591.918-.589C-61.7,2713.18-59.939,2713.177-58.175,2713.177Z" transform="translate(75.015 -2699.443)" fill="#12263f"/>
    <path id="Trazado_118087" data-name="Trazado 118087" d="M-56.33,2666.613c-1.062,0-2.128.043-3.185-.029a1.049,1.049,0,0,1-.787-.595c-.091-.467.325-.625.769-.624,2.151,0,4.3-.021,6.452.029.28.007.551.383.826.588-.27.21-.529.583-.812.6C-54.151,2666.655-55.242,2666.613-56.33,2666.613Z" transform="translate(71.582 -2659.119)" fill="#12263f"/>
    <path id="Trazado_118088" data-name="Trazado 118088" d="M-101.009,2656.662c.51-1.009.956-1.878,1.388-2.754.209-.424.454-.842.99-.565s.327.727.117,1.141c-.538,1.062-1.06,2.131-1.6,3.19-.377.733-.722.794-1.305.234a17.322,17.322,0,0,1-1.572-1.608c-.164-.206-.068-.62-.091-.938.319.028.716-.055.939.106A8.764,8.764,0,0,1-101.009,2656.662Z" transform="translate(107.66 -2648.907)" fill="#12263f"/>
    <path id="Trazado_118089" data-name="Trazado 118089" d="M-102.033,2704.45c.5-1,.933-1.847,1.356-2.7.2-.411.425-.86.977-.6s.371.706.157,1.126c-.55,1.084-1.082,2.177-1.64,3.258-.353.683-.706.74-1.26.212-.525-.5-1.028-1.023-1.543-1.532-.3-.3-.51-.636-.156-1.008.39-.409.746-.187,1.062.142S-102.441,2704.019-102.033,2704.45Z" transform="translate(108.703 -2689.235)" fill="#12263f"/>
    <path id="Trazado_118090" data-name="Trazado 118090" d="M-60.935,2762.216c-.881,0-1.761,0-2.642,0-.451,0-.839-.187-.742-.654a.981.981,0,0,1,.74-.566c1.76-.05,3.522-.025,5.283-.027.451,0,.838.187.743.653a1,1,0,0,1-.742.566C-59.17,2762.262-60.054,2762.216-60.935,2762.216Z" transform="translate(74.971 -2739.75)" fill="#12263f"/>
    <path id="Trazado_118091" data-name="Trazado 118091" d="M-62.022,2809.943a10.356,10.356,0,0,1-1.7-.027c-.275-.046-.5-.383-.749-.588.244-.209.478-.585.733-.6a31.391,31.391,0,0,1,3.489,0c.259.014.5.382.746.587-.244.209-.466.557-.736.6A11.443,11.443,0,0,1-62.022,2809.943Z" transform="translate(75.09 -2779.992)" fill="#12263f"/>
  </g>
</svg>
